<svg xmlns="http://www.w3.org/2000/svg" viewBox="0 0 1024 1024" role="img" aria-labelledby="title desc">
  <title id="title">BusyMom Agent logo</title>
  <desc id="desc">Warm family helper logo for BusyMom Agent</desc>
  <defs>
    <linearGradient id="bg" x1="0" x2="1" y1="0" y2="1">
      <stop offset="0" stop-color="#fff7ed"/>
      <stop offset="0.48" stop-color="#fed7aa"/>
      <stop offset="1" stop-color="#dbeafe"/>
    </linearGradient>
    <radialGradient id="glow" cx="50%" cy="42%" r="55%">
      <stop offset="0" stop-color="#ffffff" stop-opacity="0.92"/>
      <stop offset="1" stop-color="#ffffff" stop-opacity="0"/>
    </radialGradient>
    <filter id="shadow" x="-20%" y="-20%" width="140%" height="140%">
      <feDropShadow dx="0" dy="16" stdDeviation="18" flood-color="#7c2d12" flood-opacity="0.24"/>
    </filter>
  </defs>
  <rect width="1024" height="1024" rx="92" fill="url(#bg)"/>
  <circle cx="512" cy="430" r="420" fill="url(#glow)"/>
  <g filter="url(#shadow)">
    <path d="M330 310 512 185 694 310h-54L512 224 384 310z" fill="#2563eb"/>
    <rect x="423" y="310" width="178" height="120" rx="12" fill="#fff" opacity="0.92"/>
    <rect x="447" y="337" width="40" height="38" fill="#2563eb"/>
    <rect x="537" y="337" width="40" height="38" fill="#2563eb"/>
    <rect x="493" y="337" width="38" height="93" fill="#2563eb"/>
    <path d="M397 166c54-46 132-49 190-6" fill="none" stroke="#f97316" stroke-width="18" stroke-linecap="round"/>
    <path d="M512 110v58M616 145l-35 47M408 145l35 47" stroke="#f97316" stroke-width="14" stroke-linecap="round"/>
    <circle cx="398" cy="462" r="76" fill="#f97316"/>
    <circle cx="512" cy="492" r="62" fill="#65a30d"/>
    <circle cx="632" cy="464" r="72" fill="#0b63b6"/>
    <rect x="308" y="522" width="178" height="186" rx="82" fill="#f97316"/>
    <rect x="450" y="545" width="126" height="165" rx="62" fill="#65a30d"/>
    <rect x="556" y="522" width="178" height="186" rx="82" fill="#0b63b6"/>
    <path d="M205 694c196 134 422 134 614 0" fill="none" stroke="#fff" stroke-width="34" stroke-linecap="round"/>
    <path d="M216 718c190 94 400 94 592 0" fill="none" stroke="#0b63b6" stroke-width="14" stroke-linecap="round"/>
    <rect x="660" y="505" width="145" height="178" rx="20" fill="#fff" stroke="#0b63b6" stroke-width="9"/>
    <path d="m686 552 22 22 49-50M686 601l22 22 49-50M686 650l22 22 49-50" fill="none" stroke="#65a30d" stroke-width="10" stroke-linecap="round" stroke-linejoin="round"/>
  </g>
  <g font-family="Inter, Avenir Next, Arial, sans-serif" text-anchor="middle">
    <text x="512" y="812" font-size="122" font-weight="900" fill="#fff" stroke="#7c2d12" stroke-width="7" paint-order="stroke">BusyMom</text>
    <text x="512" y="895" font-size="54" font-weight="900" letter-spacing="15" fill="#2d2722" stroke="#fff" stroke-width="3" paint-order="stroke">AGENT</text>
  </g>
  <g fill="#f97316">
    <path d="M226 268 238 294 266 306 238 318 226 346 214 318 186 306 214 294z"/>
  </g>
  <g fill="#2563eb">
    <path d="M786 218 799 248 830 262 799 276 786 308 772 276 742 262 772 248z"/>
  </g>
</svg>
